# xmcd
#
# Track frame offsets: 
#        150
#        13292
#        26430
#        40195
#        52283
#        67171
#        77974
#        89670
#        99987
#        111103
#        122070
#        133065
#        146303
#        158801
#        169651
#        180348
#        195026
#        204048
#        215515
#        227995
#        241069
#        262702
#
# Disc length: 3612 seconds
#
# Revision: 0
# Processed by: cddbd v1.5.2PL0 Copyright (c) Steve Scherf et al.
# Submitted via: ExactAudioCopy v1.0b3
#
DISCID=270e1a16
DTITLE=Golden Gate Quartet - Milestones Of Legends CD6
DYEAR=1900
DGENRE=Gospel
TTITLE0=Seven Angels and Seven Trumpets
TTITLE1=Lord I Want To Be A Christian
TTITLE2=You Ain't Got Faith (Till You Got Religion)
TTITLE3=Religion Is A Fortune
TTITLE4=Satisfied
TTITLE5=Lord I Want To Waalk With Thee
TTITLE6=There's A Man Going 'round Taking Names
TTITLE7=Didn't That Man Believe
TTITLE8=Same Train
TTITLE9=Ride On Moses
TTITLE10=Look Up!
TTITLE11=Listen To The Lambs
TTITLE12=Hold The Wind
TTITLE13=Nocodemus
TTITLE14=On Top Of Old Smokey
TTITLE15=Mother's Love
TTITLE16=Bones Bones Bones
TTITLE17=You Better Mind
TTITLE18=I Just Telephone Upstairs
TTITLE19=Rain Is The Teardrops Of Angels
TTITLE20=Hit The Road To Dreamland
TTITLE21=The General Jumped At Dawn
EXTD=
EXTT0=
EXTT1=
EXTT2=
EXTT3=
EXTT4=
EXTT5=
EXTT6=
EXTT7=
EXTT8=
EXTT9=
EXTT10=
EXTT11=
EXTT12=
EXTT13=
EXTT14=
EXTT15=
EXTT16=
EXTT17=
EXTT18=
EXTT19=
EXTT20=
EXTT21=
PLAYORDER=
